<svg xmlns="http://www.w3.org/2000/svg" xmlns:xlink="http://www.w3.org/1999/xlink" width="500" zoomAndPan="magnify" viewBox="0 0 375 374.999991" height="500" preserveAspectRatio="xMidYMid meet" version="1.0"><defs><g/><clipPath id="a6052dd7f7"><path d="M 61.101562 61.101562 L 313.898438 61.101562 L 313.898438 313.898438 L 61.101562 313.898438 Z M 61.101562 61.101562 " clip-rule="nonzero"/></clipPath><clipPath id="659c6ec1cf"><path d="M 187.5 61.101562 C 117.691406 61.101562 61.101562 117.691406 61.101562 187.5 C 61.101562 257.308594 117.691406 313.898438 187.5 313.898438 C 257.308594 313.898438 313.898438 257.308594 313.898438 187.5 C 313.898438 117.691406 257.308594 61.101562 187.5 61.101562 Z M 187.5 61.101562 " clip-rule="nonzero"/></clipPath><clipPath id="54ed979f86"><path d="M 141 142 L 209 142 L 209 233 L 141 233 Z M 141 142 " clip-rule="nonzero"/></clipPath><clipPath id="c5a0b9e92b"><path d="M 188.171875 142.914062 L 208.679688 155.292969 L 162.332031 232.085938 L 141.824219 219.710938 Z M 188.171875 142.914062 " clip-rule="nonzero"/></clipPath><clipPath id="e3ee97f20c"><path d="M 143 155 L 190 155 L 190 201 L 143 201 Z M 143 155 " clip-rule="nonzero"/></clipPath><clipPath id="ca5e117fbc"><path d="M 161.144531 155.144531 L 189.089844 172.007812 L 171.90625 200.484375 L 143.960938 183.617188 Z M 161.144531 155.144531 " clip-rule="nonzero"/></clipPath><clipPath id="71d72fe083"><path d="M 176 158 L 220 158 L 220 201 L 176 201 Z M 176 158 " clip-rule="nonzero"/></clipPath><clipPath id="fb6e81f677"><path d="M 192 158.183594 L 219.945312 175.046875 L 204.597656 200.484375 L 176.648438 183.617188 Z M 192 158.183594 " clip-rule="nonzero"/></clipPath></defs><g clip-path="url(#a6052dd7f7)"><g clip-path="url(#659c6ec1cf)"><path fill="#014750" d="M 61.101562 61.101562 L 313.898438 61.101562 L 313.898438 313.898438 L 61.101562 313.898438 Z M 61.101562 61.101562 " fill-opacity="1" fill-rule="nonzero"/></g></g><g fill="#ffffff" fill-opacity="1"><g transform="translate(109.971687, 185.926749)"><g><path d="M 94.71875 -1.640625 C 95.082031 -1.640625 95.265625 -1.363281 95.265625 -0.8125 C 95.265625 -0.269531 95.082031 0 94.71875 0 C 93.082031 0 90.441406 -0.0859375 86.796875 -0.265625 C 83.347656 -0.453125 80.800781 -0.546875 79.15625 -0.546875 C 77.25 -0.546875 74.75 -0.453125 71.65625 -0.265625 C 68.738281 -0.0859375 66.554688 0 65.109375 0 C 64.742188 0 64.5625 -0.269531 64.5625 -0.8125 C 64.5625 -1.363281 64.742188 -1.640625 65.109375 -1.640625 C 68.835938 -1.640625 71.519531 -1.976562 73.15625 -2.65625 C 74.789062 -3.34375 75.609375 -4.503906 75.609375 -6.140625 C 75.609375 -7.410156 75.109375 -9.1875 74.109375 -11.46875 L 61.28125 -39.171875 L 28.796875 -39.171875 L 19.515625 -16.78125 C 18.242188 -13.6875 17.609375 -11.140625 17.609375 -9.140625 C 17.609375 -6.503906 18.695312 -4.59375 20.875 -3.40625 C 23.0625 -2.226562 26.476562 -1.640625 31.125 -1.640625 C 31.570312 -1.640625 31.796875 -1.363281 31.796875 -0.8125 C 31.796875 -0.269531 31.570312 0 31.125 0 C 29.476562 0 27.109375 -0.0859375 24.015625 -0.265625 C 20.554688 -0.453125 17.554688 -0.546875 15.015625 -0.546875 C 12.734375 -0.546875 10.046875 -0.453125 6.953125 -0.265625 C 4.222656 -0.0859375 1.992188 0 0.265625 0 C -0.179688 0 -0.40625 -0.269531 -0.40625 -0.8125 C -0.40625 -1.363281 -0.179688 -1.640625 0.265625 -1.640625 C 2.816406 -1.640625 4.976562 -2.09375 6.75 -3 C 8.53125 -3.914062 10.210938 -5.554688 11.796875 -7.921875 C 13.390625 -10.285156 15.097656 -13.648438 16.921875 -18.015625 L 45.453125 -86.671875 C 45.628906 -86.941406 45.921875 -87.078125 46.328125 -87.078125 C 46.742188 -87.078125 47 -86.941406 47.09375 -86.671875 L 78.75 -18.703125 C 80.84375 -14.054688 82.707031 -10.523438 84.34375 -8.109375 C 85.976562 -5.703125 87.59375 -4.019531 89.1875 -3.0625 C 90.78125 -2.113281 92.625 -1.640625 94.71875 -1.640625 Z M 29.890625 -41.625 L 60.046875 -41.625 L 44.078125 -75.890625 Z M 29.890625 -41.625 "/></g></g></g><g fill="#ffffff" fill-opacity="1"><g transform="translate(151.68779, 252.57469)"><g><path d="M 110.140625 -1.640625 C 110.410156 -1.640625 110.546875 -1.363281 110.546875 -0.8125 C 110.546875 -0.269531 110.410156 0 110.140625 0 C 107.316406 0 105.085938 -0.046875 103.453125 -0.140625 L 94.3125 -0.265625 L 85.84375 -0.140625 C 84.476562 -0.046875 82.566406 0 80.109375 0 C 79.929688 0 79.84375 -0.269531 79.84375 -0.8125 C 79.84375 -1.363281 79.929688 -1.640625 80.109375 -1.640625 C 83.296875 -1.640625 85.640625 -1.890625 87.140625 -2.390625 C 88.640625 -2.890625 89.640625 -3.773438 90.140625 -5.046875 C 90.648438 -6.316406 90.8125 -8.320312 90.625 -11.0625 L 88.3125 -74.515625 L 56.375 -0.953125 C 56.1875 -0.585938 55.820312 -0.40625 55.28125 -0.40625 C 54.820312 -0.40625 54.410156 -0.585938 54.046875 -0.953125 L 20.75 -73.96875 L 20.609375 -74.25 L 19.515625 -14.1875 C 19.421875 -9.457031 20.191406 -6.179688 21.828125 -4.359375 C 23.472656 -2.546875 26.523438 -1.640625 30.984375 -1.640625 C 31.160156 -1.640625 31.25 -1.363281 31.25 -0.8125 C 31.25 -0.269531 31.160156 0 30.984375 0 C 28.429688 0 26.472656 -0.046875 25.109375 -0.140625 L 17.75 -0.265625 L 11.0625 -0.140625 C 9.875 -0.046875 8.097656 0 5.734375 0 C 5.546875 0 5.453125 -0.269531 5.453125 -0.8125 C 5.453125 -1.363281 5.546875 -1.640625 5.734375 -1.640625 C 9.554688 -1.640625 12.257812 -2.570312 13.84375 -4.4375 C 15.4375 -6.300781 16.28125 -9.550781 16.375 -14.1875 L 17.75 -78.890625 C 14.925781 -82.078125 11.238281 -83.671875 6.6875 -83.671875 C 6.507812 -83.671875 6.421875 -83.941406 6.421875 -84.484375 C 6.421875 -85.023438 6.507812 -85.296875 6.6875 -85.296875 L 11.328125 -85.171875 C 12.234375 -85.078125 13.414062 -85.03125 14.875 -85.03125 C 16.332031 -85.03125 17.5625 -85.070312 18.5625 -85.15625 C 19.5625 -85.25 20.332031 -85.296875 20.875 -85.296875 C 22.15625 -85.296875 23.160156 -84.863281 23.890625 -84 C 24.617188 -83.132812 25.707031 -81.203125 27.15625 -78.203125 L 57.875 -11.875 L 88.4375 -81.890625 C 88.894531 -82.890625 89.507812 -83.707031 90.28125 -84.34375 C 91.050781 -84.976562 91.800781 -85.296875 92.53125 -85.296875 C 92.894531 -85.296875 93.488281 -85.25 94.3125 -85.15625 C 95.132812 -85.070312 96.269531 -85.03125 97.71875 -85.03125 L 103.859375 -85.171875 C 104.773438 -85.253906 106.1875 -85.296875 108.09375 -85.296875 C 108.28125 -85.296875 108.375 -85.023438 108.375 -84.484375 C 108.375 -83.941406 108.28125 -83.671875 108.09375 -83.671875 C 103.363281 -83.671875 100.019531 -83.054688 98.0625 -81.828125 C 96.101562 -80.597656 95.171875 -78.160156 95.265625 -74.515625 L 97.859375 -11.0625 C 97.953125 -8.238281 98.289062 -6.1875 98.875 -4.90625 C 99.46875 -3.632812 100.601562 -2.769531 102.28125 -2.3125 C 103.96875 -1.863281 106.585938 -1.640625 110.140625 -1.640625 Z M 110.140625 -1.640625 "/></g></g></g><g clip-path="url(#54ed979f86)"><g clip-path="url(#c5a0b9e92b)"><path fill="#014750" d="M 188.171875 142.914062 L 208.679688 155.292969 L 162.3125 232.121094 L 141.800781 219.742188 Z M 188.171875 142.914062 " fill-opacity="1" fill-rule="nonzero"/></g></g><g clip-path="url(#e3ee97f20c)"><g clip-path="url(#ca5e117fbc)"><path fill="#014750" d="M 161.144531 155.144531 L 189.089844 172.007812 L 171.894531 200.503906 L 143.949219 183.636719 Z M 161.144531 155.144531 " fill-opacity="1" fill-rule="nonzero"/></g></g><g clip-path="url(#71d72fe083)"><g clip-path="url(#fb6e81f677)"><path fill="#014750" d="M 192 158.183594 L 219.917969 175.03125 L 204.570312 200.46875 L 176.648438 183.617188 Z M 192 158.183594 " fill-opacity="1" fill-rule="nonzero"/></g></g><path stroke-linecap="butt" transform="matrix(0.431053, -0.613753, 0.613753, 0.431053, 133.449327, 242.349476)" fill="none" stroke-linejoin="miter" d="M 0.000829754 1.50127 L 198.527857 1.498864 " stroke="#ffffff" stroke-width="3" stroke-opacity="1" stroke-miterlimit="4"/></svg>